# xmcd
#
# Track frame offsets:
#	150
#	13457
#	28757
#	40232
#	53132
#	67382
#	79944
#	91419
#	106494
#	118569
#	133344
#	146019
#	161394
#	173807
#	186069
#	196719
#	210144
#
# Disc length: 3024 seconds
#
# Revision: 0
# Processed by: cddbd v1.5.2PL0 Copyright (c) Steve Scherf et al.
# Submitted via: EZCDAudioConverter 7.1.4.1
#
DISCID=f10bce11
DTITLE=The Griddle Lickers - Chicken Liquor Good
DYEAR=2018
DGENRE=Old-Time Country
TTITLE0=Indian Killed a Woodcock
TTITLE1=Stockade Blues
TTITLE2=Lost John
TTITLE3=Georgia Rag
TTITLE4=Polecat Blues
TTITLE5=Moonshiner's Dream
TTITLE6=Cacklin' Hen
TTITLE7=Who Broke the Lock
TTITLE8=Up Jumped the Rabbit
TTITLE9=Home Brew Rag
TTITLE10=Georgia Belle
TTITLE11=She Had a Heart
TTITLE12=Decatur Street Rag
TTITLE13=Share Em
TTITLE14=Rome Georgia Bound
TTITLE15=Cat Rag
TTITLE16=Barnyard Dance
EXTD=
EXTT0=
EXTT1=
EXTT2=
EXTT3=
EXTT4=
EXTT5=
EXTT6=
EXTT7=
EXTT8=
EXTT9=
EXTT10=
EXTT11=
EXTT12=
EXTT13=
EXTT14=
EXTT15=
EXTT16=
PLAYORDER=
